<?xml version="1.0" encoding="utf-8"?>
<!-- Svg Vector Icons : http://www.onlinewebfonts.com/icon -->
<!DOCTYPE svg PUBLIC "-//W3C//DTD SVG 1.1//EN" "http://www.w3.org/Graphics/SVG/1.1/DTD/svg11.dtd">
<svg version="1.1" xmlns="http://www.w3.org/2000/svg" xmlns:xlink="http://www.w3.org/1999/xlink" x="0px" y="0px" viewBox="0 0 1000 1000" enable-background="new 0 0 1000 1000" xml:space="preserve">
<g><path d="M293,659.7l46.3,46.5l111.6-40.7L333.6,548.3L293,659.7z"/><path d="M500,10C229.4,10,10,229.4,10,500c0,270.6,219.4,490,490,490c270.6,0,490-219.4,490-490C990,229.4,770.6,10,500,10z M475.5,690l-0.3-0.3c-1.4,1.1-2.8,2.2-4.6,2.8l-225.7,82.4c-5.9,2.1-12.5,0.7-16.9-3.8c-4.4-4.4-5.9-11-3.7-16.8l82.3-225.6c0.6-1.7,1.6-3.1,2.7-4.5l-0.2-0.2l202.7-202.6c22,21.9,40.1,40,40.1,40L393.2,519.7c-2.6,2.5-3.7,5.8-3.7,9.1c0,3.3,1.1,6.5,3.7,9.1c2.5,2.4,5.8,3.8,9.2,3.8s6.6-1.4,9.1-3.8l158.7-158.4l49.9,49.8L462,587c-5,5-5,13.2,0,18.2c2.4,2.4,5.8,3.8,9.2,3.8c3.4,0,6.7-1.3,9.1-3.7c0,0,158-157.8,158-157.8s23.2,23.2,39.9,40L475.5,690z M759.6,406l-63.3,63.2c-32.5-32.5-108-108-166.2-166.1l63.3-63.3c22.7-22.7,59.8-22.7,82.4,0l83.8,83.8C782.3,346.2,782.3,383.2,759.6,406z"/></g>
</svg>
